# xmcd CD database file
#
# Track frame offsets:
#	150
#	14407
#	29397
#	42930
#	56067
#	70985
#	83460
#	95002
#	106812
#	119876
#	132496
#	147437
#
# Disc length: 2182 seconds
#
# Revision: 0
# Processed by: cddbd v1.5.2PL0 Copyright (c) Steve Scherf et al.
# Submitted via: CDex 1.70beta2
#
DISCID=ad08840c
DTITLE=Roy Clark - Greatest Hits Disc 2
DYEAR=1900
DGENRE=Country
TTITLE0=The tips of my fingers
TTITLE1=Yesterday when i was young
TTITLE2=Come live with me
TTITLE3=Honeymoon feelin'
TTITLE4=Somewhere between love and tomorrow
TTITLE5=If I had to do it all over again
TTITLE6=I never picked cotton
TTITLE7=Thank God and Greyhound
TTITLE8=The Lawerence Welk-Hee Haw Counter Revolution Polka
TTITLE9=Heart to heart
TTITLE10=Right or left at Oak street
TTITLE11=Then she's a lover
EXTD=
EXTT0=
EXTT1=
EXTT2=
EXTT3=
EXTT4=
EXTT5=
EXTT6=
EXTT7=
EXTT8=
EXTT9=
EXTT10=
EXTT11=
PLAYORDER=
